<svg width="231" height="37" viewBox="0 0 231 37" fill="none" xmlns="http://www.w3.org/2000/svg">
<g clip-path="url(#clip0_1_2)">
<path d="M22.75 5H10.25C6.79822 5 4 7.68629 4 11V19C4 22.3137 6.79822 25 10.25 25H22.75C26.2018 25 29 22.3137 29 19V11C29 7.68629 26.2018 5 22.75 5Z" stroke="url(#paint0_linear_1_2)" stroke-width="2"/>
<path d="M8 15H25M13.6667 10V20" stroke="url(#paint1_linear_1_2)" stroke-width="2" stroke-linecap="round"/>
<path d="M40.266 10.172V12.09H36.262V14.162H39.258V16.024H36.262V20H33.868V10.172H40.266ZM49.2383 12.188V20H46.8443V18.936C46.6016 19.2813 46.2703 19.5613 45.8503 19.776C45.4396 19.9813 44.9823 20.084 44.4783 20.084C43.8809 20.084 43.3536 19.9533 42.8963 19.692C42.4389 19.4213 42.0843 19.034 41.8323 18.53C41.5803 18.026 41.4543 17.4333 41.4543 16.752V12.188H43.8343V16.43C43.8343 16.9527 43.9696 17.3587 44.2403 17.648C44.5109 17.9373 44.8749 18.082 45.3323 18.082C45.7989 18.082 46.1676 17.9373 46.4383 17.648C46.7089 17.3587 46.8443 16.9527 46.8443 16.43V12.188H49.2383ZM54.1358 20.112C53.4545 20.112 52.8478 19.9953 52.3158 19.762C51.7838 19.5287 51.3638 19.2113 51.0558 18.81C50.7478 18.3993 50.5752 17.942 50.5378 17.438H52.9038C52.9318 17.7087 53.0578 17.928 53.2818 18.096C53.5058 18.264 53.7812 18.348 54.1078 18.348C54.4065 18.348 54.6352 18.292 54.7938 18.18C54.9618 18.0587 55.0458 17.9047 55.0458 17.718C55.0458 17.494 54.9292 17.3307 54.6958 17.228C54.4625 17.116 54.0845 16.9947 53.5618 16.864C53.0018 16.7333 52.5352 16.598 52.1618 16.458C51.7885 16.3087 51.4665 16.08 51.1958 15.772C50.9252 15.4547 50.7898 15.03 50.7898 14.498C50.7898 14.05 50.9112 13.644 51.1538 13.28C51.4058 12.9067 51.7698 12.6127 52.2458 12.398C52.7312 12.1833 53.3052 12.076 53.9678 12.076C54.9478 12.076 55.7178 12.3187 56.2778 12.804C56.8472 13.2893 57.1738 13.9333 57.2578 14.736H55.0458C55.0085 14.4653 54.8872 14.2507 54.6818 14.092C54.4858 13.9333 54.2245 13.854 53.8978 13.854C53.6178 13.854 53.4032 13.91 53.2538 14.022C53.1045 14.1247 53.0298 14.2693 53.0298 14.456C53.0298 14.68 53.1465 14.848 53.3798 14.96C53.6225 15.072 53.9958 15.184 54.4998 15.296C55.0785 15.4453 55.5498 15.5947 55.9138 15.744C56.2778 15.884 56.5952 16.1173 56.8658 16.444C57.1458 16.7613 57.2905 17.1907 57.2998 17.732C57.2998 18.1893 57.1692 18.6 56.9078 18.964C56.6558 19.3187 56.2872 19.5987 55.8018 19.804C55.3258 20.0093 54.7705 20.112 54.1358 20.112ZM61.9425 20.112C61.2612 20.112 60.6545 19.9953 60.1225 19.762C59.5905 19.5287 59.1705 19.2113 58.8625 18.81C58.5545 18.3993 58.3818 17.942 58.3445 17.438H60.7105C60.7385 17.7087 60.8645 17.928 61.0885 18.096C61.3125 18.264 61.5878 18.348 61.9145 18.348C62.2132 18.348 62.4418 18.292 62.6005 18.18C62.7685 18.0587 62.8525 17.9047 62.8525 17.718C62.8525 17.494 62.7358 17.3307 62.5025 17.228C62.2692 17.116 61.8912 16.9947 61.3685 16.864C60.8085 16.7333 60.3418 16.598 59.9685 16.458C59.5952 16.3087 59.2732 16.08 59.0025 15.772C58.7318 15.4547 58.5965 15.03 58.5965 14.498C58.5965 14.05 58.7178 13.644 58.9605 13.28C59.2125 12.9067 59.5765 12.6127 60.0525 12.398C60.5378 12.1833 61.1118 12.076 61.7745 12.076C62.7545 12.076 63.5245 12.3187 64.0845 12.804C64.6538 13.2893 64.9805 13.9333 65.0645 14.736H62.8525C62.8152 14.4653 62.6938 14.2507 62.4885 14.092C62.2925 13.9333 62.0312 13.854 61.7045 13.854C61.4245 13.854 61.2098 13.91 61.0605 14.022C60.9112 14.1247 60.8365 14.2693 60.8365 14.456C60.8365 14.68 60.9532 14.848 61.1865 14.96C61.4292 15.072 61.8025 15.184 62.3065 15.296C62.8852 15.4453 63.3565 15.5947 63.7205 15.744C64.0845 15.884 64.4018 16.1173 64.6725 16.444C64.9525 16.7613 65.0972 17.1907 65.1065 17.732C65.1065 18.1893 64.9758 18.6 64.7145 18.964C64.4625 19.3187 64.0938 19.5987 63.6085 19.804C63.1325 20.0093 62.5772 20.112 61.9425 20.112ZM67.7751 11.376C67.3551 11.376 67.0098 11.2547 66.7391 11.012C66.4778 10.76 66.3471 10.452 66.3471 10.088C66.3471 9.71467 66.4778 9.40667 66.7391 9.164C67.0098 8.912 67.3551 8.786 67.7751 8.786C68.1858 8.786 68.5218 8.912 68.7831 9.164C69.0538 9.40667 69.1891 9.71467 69.1891 10.088C69.1891 10.452 69.0538 10.76 68.7831 11.012C68.5218 11.2547 68.1858 11.376 67.7751 11.376ZM68.9651 12.188V20H66.5711V12.188H68.9651ZM74.256 20.112C73.4907 20.112 72.8 19.9487 72.184 19.622C71.5774 19.2953 71.0967 18.8287 70.742 18.222C70.3967 17.6153 70.224 16.906 70.224 16.094C70.224 15.2913 70.4014 14.5867 70.756 13.98C71.1107 13.364 71.596 12.8927 72.212 12.566C72.828 12.2393 73.5187 12.076 74.284 12.076C75.0494 12.076 75.74 12.2393 76.356 12.566C76.972 12.8927 77.4574 13.364 77.812 13.98C78.1667 14.5867 78.344 15.2913 78.344 16.094C78.344 16.8967 78.162 17.606 77.798 18.222C77.4434 18.8287 76.9534 19.2953 76.328 19.622C75.712 19.9487 75.0214 20.112 74.256 20.112ZM74.256 18.04C74.7134 18.04 75.1007 17.872 75.418 17.536C75.7447 17.2 75.908 16.7193 75.908 16.094C75.908 15.4687 75.7494 14.988 75.432 14.652C75.124 14.316 74.7414 14.148 74.284 14.148C73.8174 14.148 73.43 14.316 73.122 14.652C72.814 14.9787 72.66 15.4593 72.66 16.094C72.66 16.7193 72.8094 17.2 73.108 17.536C73.416 17.872 73.7987 18.04 74.256 18.04ZM84.3741 12.104C85.2888 12.104 86.0168 12.4027 86.5581 13C87.1088 13.588 87.3841 14.4 87.3841 15.436V20H85.0041V15.758C85.0041 15.2353 84.8688 14.8293 84.5981 14.54C84.3274 14.2507 83.9634 14.106 83.5061 14.106C83.0488 14.106 82.6848 14.2507 82.4141 14.54C82.1434 14.8293 82.0081 15.2353 82.0081 15.758V20H79.6141V12.188H82.0081V13.224C82.2508 12.8787 82.5774 12.608 82.9881 12.412C83.3988 12.2067 83.8608 12.104 84.3741 12.104ZM88.6417 15.072C88.6417 14.1013 88.8517 13.238 89.2717 12.482C89.6917 11.7167 90.275 11.124 91.0217 10.704C91.7777 10.2747 92.6317 10.06 93.5837 10.06C94.7504 10.06 95.749 10.368 96.5797 10.984C97.4104 11.6 97.9657 12.44 98.2457 13.504H95.6137C95.4177 13.0933 95.1377 12.7807 94.7737 12.566C94.419 12.3513 94.013 12.244 93.5557 12.244C92.8184 12.244 92.221 12.5007 91.7637 13.014C91.3064 13.5273 91.0777 14.2133 91.0777 15.072C91.0777 15.9307 91.3064 16.6167 91.7637 17.13C92.221 17.6433 92.8184 17.9 93.5557 17.9C94.013 17.9 94.419 17.7927 94.7737 17.578C95.1377 17.3633 95.4177 17.0507 95.6137 16.64H98.2457C97.9657 17.704 97.4104 18.544 96.5797 19.16C95.749 19.7667 94.7504 20.07 93.5837 20.07C92.6317 20.07 91.7777 19.86 91.0217 19.44C90.275 19.0107 89.6917 18.418 89.2717 17.662C88.8517 16.906 88.6417 16.0427 88.6417 15.072ZM103.268 20.112C102.502 20.112 101.812 19.9487 101.196 19.622C100.589 19.2953 100.108 18.8287 99.7538 18.222C99.4084 17.6153 99.2358 16.906 99.2358 16.094C99.2358 15.2913 99.4131 14.5867 99.7677 13.98C100.122 13.364 100.608 12.8927 101.224 12.566C101.84 12.2393 102.53 12.076 103.296 12.076C104.061 12.076 104.752 12.2393 105.368 12.566C105.984 12.8927 106.469 13.364 106.824 13.98C107.178 14.5867 107.356 15.2913 107.356 16.094C107.356 16.8967 107.174 17.606 106.81 18.222C106.455 18.8287 105.965 19.2953 105.34 19.622C104.724 19.9487 104.033 20.112 103.268 20.112ZM103.268 18.04C103.725 18.04 104.112 17.872 104.43 17.536C104.756 17.2 104.92 16.7193 104.92 16.094C104.92 15.4687 104.761 14.988 104.444 14.652C104.136 14.316 103.753 14.148 103.296 14.148C102.829 14.148 102.442 14.316 102.134 14.652C101.826 14.9787 101.672 15.4593 101.672 16.094C101.672 16.7193 101.821 17.2 102.12 17.536C102.428 17.872 102.81 18.04 103.268 18.04ZM118.594 12.104C119.564 12.104 120.334 12.398 120.904 12.986C121.482 13.574 121.772 14.3907 121.772 15.436V20H119.392V15.758C119.392 15.254 119.256 14.8667 118.986 14.596C118.724 14.316 118.36 14.176 117.894 14.176C117.427 14.176 117.058 14.316 116.788 14.596C116.526 14.8667 116.396 15.254 116.396 15.758V20H114.016V15.758C114.016 15.254 113.88 14.8667 113.61 14.596C113.348 14.316 112.984 14.176 112.518 14.176C112.051 14.176 111.682 14.316 111.412 14.596C111.15 14.8667 111.02 15.254 111.02 15.758V20H108.626V12.188H111.02V13.168C111.262 12.8413 111.58 12.5847 111.972 12.398C112.364 12.202 112.807 12.104 113.302 12.104C113.89 12.104 114.412 12.23 114.87 12.482C115.336 12.734 115.7 13.0933 115.962 13.56C116.232 13.1307 116.601 12.7807 117.068 12.51C117.534 12.2393 118.043 12.104 118.594 12.104ZM133.414 12.104C134.385 12.104 135.155 12.398 135.724 12.986C136.303 13.574 136.592 14.3907 136.592 15.436V20H134.212V15.758C134.212 15.254 134.077 14.8667 133.806 14.596C133.545 14.316 133.181 14.176 132.714 14.176C132.247 14.176 131.879 14.316 131.608 14.596C131.347 14.8667 131.216 15.254 131.216 15.758V20H128.836V15.758C128.836 15.254 128.701 14.8667 128.43 14.596C128.169 14.316 127.805 14.176 127.338 14.176C126.871 14.176 126.503 14.316 126.232 14.596C125.971 14.8667 125.84 15.254 125.84 15.758V20H123.446V12.188H125.84V13.168C126.083 12.8413 126.4 12.5847 126.792 12.398C127.184 12.202 127.627 12.104 128.122 12.104C128.71 12.104 129.233 12.23 129.69 12.482C130.157 12.734 130.521 13.0933 130.782 13.56C131.053 13.1307 131.421 12.7807 131.888 12.51C132.355 12.2393 132.863 12.104 133.414 12.104ZM143.627 10.172V20H141.233V10.172H143.627ZM144.956 15.072C144.956 14.1013 145.166 13.238 145.586 12.482C146.006 11.7167 146.589 11.124 147.336 10.704C148.092 10.2747 148.946 10.06 149.898 10.06C151.065 10.06 152.063 10.368 152.894 10.984C153.725 11.6 154.28 12.44 154.56 13.504H151.928C151.732 13.0933 151.452 12.7807 151.088 12.566C150.733 12.3513 150.327 12.244 149.87 12.244C149.133 12.244 148.535 12.5007 148.078 13.014C147.621 13.5273 147.392 14.2133 147.392 15.072C147.392 15.9307 147.621 16.6167 148.078 17.13C148.535 17.6433 149.133 17.9 149.87 17.9C150.327 17.9 150.733 17.7927 151.088 17.578C151.452 17.3633 151.732 17.0507 151.928 16.64H154.56C154.28 17.704 153.725 18.544 152.894 19.16C152.063 19.7667 151.065 20.07 149.898 20.07C148.946 20.07 148.092 19.86 147.336 19.44C146.589 19.0107 146.006 18.418 145.586 17.662C145.166 16.906 144.956 16.0427 144.956 15.072ZM163.096 10.172V12.09H160.492V20H158.098V12.09H155.494V10.172H163.096Z" fill="white"/>
</g>
<defs>
<linearGradient id="paint0_linear_1_2" x1="1.91667" y1="1" x2="126.37" y2="31.2491" gradientUnits="userSpaceOnUse">
<stop stop-color="#3B82F6"/>
<stop offset="1" stop-color="#22D3EE"/>
</linearGradient>
<linearGradient id="paint1_linear_1_2" x1="-3.33333" y1="-2.5" x2="164.206" y2="41.8049" gradientUnits="userSpaceOnUse">
<stop stop-color="#3B82F6"/>
<stop offset="1" stop-color="#22D3EE"/>
</linearGradient>
<clipPath id="clip0_1_2">
<rect width="231" height="37" fill="white"/>
</clipPath>
</defs>
</svg>
